<svg width="34" height="34" viewBox="0 0 34 34" fill="none" xmlns="http://www.w3.org/2000/svg">
<path d="M5.80002 25.4001H11.4C12.17 25.4001 12.8 24.7701 12.8 24.0001C12.8 23.2301 12.17 22.6001 11.4 22.6001H5.80002C5.03002 22.6001 4.40002 23.2301 4.40002 24.0001C4.40002 24.7701 5.03002 25.4001 5.80002 25.4001ZM4.40002 10.0001C4.40002 10.7701 5.03002 11.4001 5.80002 11.4001H28.2C28.97 11.4001 29.6 10.7701 29.6 10.0001C29.6 9.2301 28.97 8.6001 28.2 8.6001H5.80002C5.03002 8.6001 4.40002 9.2301 4.40002 10.0001ZM5.80002 18.4001H19.8C20.57 18.4001 21.2 17.7701 21.2 17.0001C21.2 16.2301 20.57 15.6001 19.8 15.6001H5.80002C5.03002 15.6001 4.40002 16.2301 4.40002 17.0001C4.40002 17.7701 5.03002 18.4001 5.80002 18.4001Z" fill="#979595"/>
</svg>
